<svg aria-hidden="true" style="position: absolute; width: 0; height: 0; overflow: hidden;" version="1.1" xmlns="http://www.w3.org/2000/svg" xmlns:xlink="http://www.w3.org/1999/xlink">
<defs>
<symbol id="icon-alert-octagon" viewBox="0 0 24 24">
<path d="M7.86 1c-0.256 0-0.512 0.098-0.707 0.293l-5.86 5.86c-0.181 0.181-0.293 0.431-0.293 0.707v8.28c0 0.256 0.098 0.512 0.293 0.707l5.86 5.86c0.181 0.181 0.431 0.293 0.707 0.293h8.28c0.256 0 0.512-0.098 0.707-0.293l5.86-5.86c0.181-0.181 0.293-0.431 0.293-0.707v-8.28c0-0.256-0.098-0.512-0.293-0.707l-5.86-5.86c-0.181-0.181-0.431-0.293-0.707-0.293zM8.274 3h7.452l5.274 5.274v7.452l-5.274 5.274h-7.452l-5.274-5.274v-7.452zM11 8v4c0 0.552 0.448 1 1 1s1-0.448 1-1v-4c0-0.552-0.448-1-1-1s-1 0.448-1 1zM12 17c0.552 0 1-0.448 1-1s-0.448-1-1-1-1 0.448-1 1 0.448 1 1 1z"></path>
</symbol>
<symbol id="icon-bookmark" viewBox="0 0 24 24">
<path d="M18.419 21.814c0.161 0.116 0.363 0.186 0.581 0.186 0.552 0 1-0.448 1-1v-16c0-0.828-0.337-1.58-0.879-2.121s-1.293-0.879-2.121-0.879h-10c-0.828 0-1.58 0.337-2.121 0.879s-0.879 1.293-0.879 2.121v16c-0.001 0.199 0.060 0.404 0.186 0.581 0.321 0.449 0.946 0.554 1.395 0.232l6.419-4.584zM18 19.057l-5.419-3.871c-0.355-0.254-0.819-0.242-1.162 0l-5.419 3.871v-14.057c0-0.276 0.111-0.525 0.293-0.707s0.431-0.293 0.707-0.293h10c0.276 0 0.525 0.111 0.707 0.293s0.293 0.431 0.293 0.707z"></path>
</symbol>
<symbol id="icon-calendar" viewBox="0 0 24 24">
<path d="M7 2v1h-2c-0.828 0-1.58 0.337-2.121 0.879s-0.879 1.293-0.879 2.121v14c0 0.828 0.337 1.58 0.879 2.121s1.293 0.879 2.121 0.879h14c0.828 0 1.58-0.337 2.121-0.879s0.879-1.293 0.879-2.121v-14c0-0.828-0.337-1.58-0.879-2.121s-1.293-0.879-2.121-0.879h-2v-1c0-0.552-0.448-1-1-1s-1 0.448-1 1v1h-6v-1c0-0.552-0.448-1-1-1s-1 0.448-1 1zM20 9h-16v-3c0-0.276 0.111-0.525 0.293-0.707s0.431-0.293 0.707-0.293h2v1c0 0.552 0.448 1 1 1s1-0.448 1-1v-1h6v1c0 0.552 0.448 1 1 1s1-0.448 1-1v-1h2c0.276 0 0.525 0.111 0.707 0.293s0.293 0.431 0.293 0.707zM4 11h16v9c0 0.276-0.111 0.525-0.293 0.707s-0.431 0.293-0.707 0.293h-14c-0.276 0-0.525-0.111-0.707-0.293s-0.293-0.431-0.293-0.707z"></path>
</symbol>
<symbol id="icon-camera" viewBox="0 0 24 24">
<path d="M24 19v-11c0-0.828-0.337-1.58-0.879-2.121s-1.293-0.879-2.121-0.879h-3.465l-1.703-2.555c-0.182-0.27-0.486-0.445-0.832-0.445h-6c-0.326 0.002-0.64 0.158-0.832 0.445l-1.703 2.555h-3.465c-0.828 0-1.58 0.337-2.121 0.879s-0.879 1.293-0.879 2.121v11c0 0.828 0.337 1.58 0.879 2.121s1.293 0.879 2.121 0.879h18c0.828 0 1.58-0.337 2.121-0.879s0.879-1.293 0.879-2.121zM22 19c0 0.276-0.111 0.525-0.293 0.707s-0.431 0.293-0.707 0.293h-18c-0.276 0-0.525-0.111-0.707-0.293s-0.293-0.431-0.293-0.707v-11c0-0.276 0.111-0.525 0.293-0.707s0.431-0.293 0.707-0.293h4c0.346 0 0.65-0.175 0.832-0.445l1.703-2.555h4.93l1.703 2.555c0.192 0.287 0.506 0.443 0.832 0.445h4c0.276 0 0.525 0.111 0.707 0.293s0.293 0.431 0.293 0.707zM17 13c0-1.38-0.561-2.632-1.464-3.536s-2.156-1.464-3.536-1.464-2.632 0.561-3.536 1.464-1.464 2.156-1.464 3.536 0.561 2.632 1.464 3.536 2.156 1.464 3.536 1.464 2.632-0.561 3.536-1.464 1.464-2.156 1.464-3.536zM15 13c0 0.829-0.335 1.577-0.879 2.121s-1.292 0.879-2.121 0.879-1.577-0.335-2.121-0.879-0.879-1.292-0.879-2.121 0.335-1.577 0.879-2.121 1.292-0.879 2.121-0.879 1.577 0.335 2.121 0.879 0.879 1.292 0.879 2.121z"></path>
</symbol>
<symbol id="icon-chevron-down" viewBox="0 0 24 24">
<path d="M5.293 9.707l6 6c0.391 0.391 1.024 0.391 1.414 0l6-6c0.391-0.391 0.391-1.024 0-1.414s-1.024-0.391-1.414 0l-5.293 5.293-5.293-5.293c-0.391-0.391-1.024-0.391-1.414 0s-0.391 1.024 0 1.414z"></path>
</symbol>
<symbol id="icon-chevron-up" viewBox="0 0 24 24">
<path d="M18.707 14.293l-6-6c-0.391-0.391-1.024-0.391-1.414 0l-6 6c-0.391 0.391-0.391 1.024 0 1.414s1.024 0.391 1.414 0l5.293-5.293 5.293 5.293c0.391 0.391 1.024 0.391 1.414 0s0.391-1.024 0-1.414z"></path>
</symbol>
<symbol id="icon-clipboard" viewBox="0 0 24 24">
<path d="M7 5c0 0.552 0.225 1.053 0.586 1.414s0.862 0.586 1.414 0.586h6c0.552 0 1.053-0.225 1.414-0.586s0.586-0.862 0.586-1.414h1c0.276 0 0.525 0.111 0.707 0.293s0.293 0.431 0.293 0.707v14c0 0.276-0.111 0.525-0.293 0.707s-0.431 0.293-0.707 0.293h-12c-0.276 0-0.525-0.111-0.707-0.293s-0.293-0.431-0.293-0.707v-14c0-0.276 0.111-0.525 0.293-0.707s0.431-0.293 0.707-0.293zM9 1c-0.552 0-1.053 0.225-1.414 0.586s-0.586 0.862-0.586 1.414h-1c-0.828 0-1.58 0.337-2.121 0.879s-0.879 1.293-0.879 2.121v14c0 0.828 0.337 1.58 0.879 2.121s1.293 0.879 2.121 0.879h12c0.828 0 1.58-0.337 2.121-0.879s0.879-1.293 0.879-2.121v-14c0-0.828-0.337-1.58-0.879-2.121s-1.293-0.879-2.121-0.879h-1c0-0.552-0.225-1.053-0.586-1.414s-0.862-0.586-1.414-0.586zM9 3h6v2h-6z"></path>
</symbol>
<symbol id="icon-disc" viewBox="0 0 24 24">
<path d="M23 12c0-3.037-1.232-5.789-3.222-7.778s-4.741-3.222-7.778-3.222-5.789 1.232-7.778 3.222-3.222 4.741-3.222 7.778 1.232 5.789 3.222 7.778 4.741 3.222 7.778 3.222 5.789-1.232 7.778-3.222 3.222-4.741 3.222-7.778zM21 12c0 2.486-1.006 4.734-2.636 6.364s-3.878 2.636-6.364 2.636-4.734-1.006-6.364-2.636-2.636-3.878-2.636-6.364 1.006-4.734 2.636-6.364 3.878-2.636 6.364-2.636 4.734 1.006 6.364 2.636 2.636 3.878 2.636 6.364zM16 12c0-1.104-0.449-2.106-1.172-2.828s-1.724-1.172-2.828-1.172-2.106 0.449-2.828 1.172-1.172 1.724-1.172 2.828 0.449 2.106 1.172 2.828 1.724 1.172 2.828 1.172 2.106-0.449 2.828-1.172 1.172-1.724 1.172-2.828zM14 12c0 0.553-0.223 1.051-0.586 1.414s-0.861 0.586-1.414 0.586-1.051-0.223-1.414-0.586-0.586-0.861-0.586-1.414 0.223-1.051 0.586-1.414 0.861-0.586 1.414-0.586 1.051 0.223 1.414 0.586 0.586 0.861 0.586 1.414z"></path>
</symbol>
<symbol id="icon-edit-2" viewBox="0 0 24 24">
<path d="M16.293 2.293l-13.5 13.5c-0.117 0.116-0.21 0.268-0.258 0.444l-1.5 5.5c-0.046 0.163-0.049 0.346 0 0.526 0.145 0.533 0.695 0.847 1.228 0.702l5.5-1.5c0.159-0.042 0.315-0.129 0.444-0.258l13.5-13.5c0.747-0.747 1.121-1.729 1.121-2.707s-0.374-1.96-1.121-2.707-1.729-1.121-2.707-1.121-1.96 0.374-2.707 1.121zM17.707 3.707c0.357-0.357 0.824-0.535 1.293-0.535s0.936 0.178 1.293 0.536 0.535 0.823 0.535 1.292-0.178 0.936-0.535 1.293l-13.312 13.312-3.556 0.97 0.97-3.555z"></path>
</symbol>
<symbol id="icon-folder-plus" viewBox="0 0 24 24">
<path d="M23 19v-11c0-0.828-0.337-1.58-0.879-2.121s-1.293-0.879-2.121-0.879h-8.465l-1.703-2.555c-0.182-0.27-0.486-0.445-0.832-0.445h-5c-0.828 0-1.58 0.337-2.121 0.879s-0.879 1.293-0.879 2.121v14c0 0.828 0.337 1.58 0.879 2.121s1.293 0.879 2.121 0.879h16c0.828 0 1.58-0.337 2.121-0.879s0.879-1.293 0.879-2.121zM21 19c0 0.276-0.111 0.525-0.293 0.707s-0.431 0.293-0.707 0.293h-16c-0.276 0-0.525-0.111-0.707-0.293s-0.293-0.431-0.293-0.707v-14c0-0.276 0.111-0.525 0.293-0.707s0.431-0.293 0.707-0.293h4.465l1.703 2.555c0.192 0.287 0.506 0.443 0.832 0.445h9c0.276 0 0.525 0.111 0.707 0.293s0.293 0.431 0.293 0.707zM9 15h2v2c0 0.552 0.448 1 1 1s1-0.448 1-1v-2h2c0.552 0 1-0.448 1-1s-0.448-1-1-1h-2v-2c0-0.552-0.448-1-1-1s-1 0.448-1 1v2h-2c-0.552 0-1 0.448-1 1s0.448 1 1 1z"></path>
</symbol>
<symbol id="icon-gift" viewBox="0 0 24 24">
<path d="M11 13v8h-6v-8zM13 21v-8h6v8zM7.5 6c-0.414 0-0.788-0.167-1.061-0.439s-0.439-0.647-0.439-1.061 0.167-0.788 0.439-1.061 0.647-0.439 1.061-0.439c0.629 0 1.142 0.223 1.584 0.586 0.376 0.308 0.701 0.719 0.976 1.177 0.241 0.401 0.433 0.821 0.58 1.203zM13.346 6c0.161-0.416 0.353-0.836 0.593-1.237 0.275-0.459 0.601-0.869 0.976-1.177 0.443-0.363 0.956-0.586 1.585-0.586 0.414 0 0.788 0.167 1.061 0.439s0.439 0.647 0.439 1.061-0.167 0.788-0.439 1.061-0.647 0.439-1.061 0.439zM11 8v3h-8v-3h4.5zM19.663 6c0.216-0.455 0.337-0.963 0.337-1.5 0-0.966-0.393-1.843-1.025-2.475s-1.509-1.025-2.475-1.025c-1.16 0-2.109 0.43-2.852 1.039-0.603 0.494-1.068 1.103-1.423 1.694-0.080 0.133-0.155 0.266-0.225 0.398-0.070-0.132-0.145-0.265-0.225-0.398-0.355-0.591-0.82-1.2-1.423-1.694-0.743-0.609-1.692-1.039-2.852-1.039-0.966 0-1.843 0.393-2.475 1.025s-1.025 1.509-1.025 2.475c0 0.537 0.121 1.045 0.337 1.5h-2.337c-0.552 0-1 0.448-1 1v5c0 0.552 0.448 1 1 1h1v9c0 0.552 0.448 1 1 1h16c0.552 0 1-0.448 1-1v-9h1c0.552 0 1-0.448 1-1v-5c0-0.552-0.448-1-1-1zM13 8h8v3h-8z"></path>
</symbol>
<symbol id="icon-grid" viewBox="0 0 24 24">
<path d="M3 2c-0.552 0-1 0.448-1 1v7c0 0.552 0.448 1 1 1h7c0.552 0 1-0.448 1-1v-7c0-0.552-0.448-1-1-1zM4 4h5v5h-5zM14 2c-0.552 0-1 0.448-1 1v7c0 0.552 0.448 1 1 1h7c0.552 0 1-0.448 1-1v-7c0-0.552-0.448-1-1-1zM15 4h5v5h-5zM14 13c-0.552 0-1 0.448-1 1v7c0 0.552 0.448 1 1 1h7c0.552 0 1-0.448 1-1v-7c0-0.552-0.448-1-1-1zM15 15h5v5h-5zM3 13c-0.552 0-1 0.448-1 1v7c0 0.552 0.448 1 1 1h7c0.552 0 1-0.448 1-1v-7c0-0.552-0.448-1-1-1zM4 15h5v5h-5z"></path>
</symbol>
<symbol id="icon-home" viewBox="0 0 24 24">
<path d="M2.386 8.211c-0.236 0.184-0.386 0.469-0.386 0.789v11c0 0.828 0.337 1.58 0.879 2.121s1.293 0.879 2.121 0.879h14c0.828 0 1.58-0.337 2.121-0.879s0.879-1.293 0.879-2.121v-11c-0.001-0.3-0.134-0.593-0.386-0.789l-9-7c-0.358-0.275-0.861-0.285-1.228 0zM16 21v-9c0-0.552-0.448-1-1-1h-6c-0.552 0-1 0.448-1 1v9h-3c-0.276 0-0.525-0.111-0.707-0.293s-0.293-0.431-0.293-0.707v-10.511l8-6.222 8 6.222v10.511c0 0.276-0.111 0.525-0.293 0.707s-0.431 0.293-0.707 0.293zM10 21v-8h4v8z"></path>
</symbol>
<symbol id="icon-inbox" viewBox="0 0 24 24">
<path d="M21 13v5c0 0.276-0.111 0.525-0.293 0.707s-0.431 0.293-0.707 0.293h-16c-0.276 0-0.525-0.111-0.707-0.293s-0.293-0.431-0.293-0.707v-5h4.465l1.703 2.555c0.182 0.27 0.486 0.445 0.832 0.445h4c0.326-0.002 0.64-0.158 0.832-0.445l1.703-2.555zM6.344 5.558c0.066-0.131 0.16-0.246 0.272-0.337 0.172-0.139 0.387-0.221 0.624-0.221h9.513c0.15 0.001 0.295 0.034 0.426 0.094 0.201 0.092 0.37 0.249 0.477 0.464l2.725 5.442h-4.381c-0.346 0-0.65 0.175-0.832 0.445l-1.703 2.555h-2.93l-1.703-2.555c-0.192-0.287-0.506-0.443-0.832-0.445h-4.381zM4.556 4.662l-3.441 6.872c-0.031 0.059-0.056 0.121-0.075 0.187-0.028 0.094-0.041 0.188-0.040 0.279v6c0 0.828 0.337 1.58 0.879 2.121s1.293 0.879 2.121 0.879h16c0.828 0 1.58-0.337 2.121-0.879s0.879-1.293 0.879-2.121v-6c0-0.151-0.033-0.293-0.091-0.417-0.005-0.010-0.010-0.021-0.015-0.031l-0.009-0.018-3.441-6.872c-0.315-0.634-0.829-1.111-1.433-1.387-0.388-0.177-0.812-0.272-1.244-0.275h-9.527c-0.711 0-1.367 0.249-1.883 0.667-0.331 0.268-0.605 0.606-0.801 0.995z"></path>
</symbol>
<symbol id="icon-key" viewBox="0 0 24 24">
<path d="M20.293 1.293l-2 2c-0.391 0.391-0.391 1.024 0 1.414s1.024 0.391 1.414 0l2-2c0.391-0.391 0.391-1.024 0-1.414s-1.024-0.391-1.414 0zM12.092 10.898c-1.262-1.244-2.908-1.869-4.553-1.873-1.652-0.003-3.308 0.62-4.578 1.873-1.277 1.26-1.923 2.921-1.935 4.583s0.614 3.332 1.874 4.609c1.34 1.323 3.009 1.946 4.671 1.935s3.323-0.657 4.583-1.935 1.884-2.947 1.873-4.609-0.657-3.323-1.935-4.583zM10.688 12.322c0.885 0.873 1.332 2.020 1.339 3.173s-0.424 2.306-1.297 3.191-2.020 1.332-3.173 1.339-2.306-0.424-3.191-1.297c-0.916-0.927-1.347-2.080-1.339-3.233s0.455-2.3 1.339-3.173c0.879-0.867 2.023-1.299 3.169-1.296 1.141 0.002 2.279 0.435 3.152 1.296zM12.097 12.317l4.11-4.11c0.391-0.391 0.391-1.024 0-1.414s-1.024-0.391-1.414 0l-4.11 4.11c-0.391 0.391-0.391 1.024 0 1.414s1.024 0.391 1.414 0zM14.793 8.207l3 3c0.391 0.391 1.024 0.391 1.414 0l3.5-3.5c0.391-0.391 0.391-1.024 0-1.414l-3-3c-0.391-0.391-1.024-0.391-1.414 0s-0.391 1.024 0 1.414l2.293 2.293-2.086 2.086-2.293-2.293c-0.391-0.391-1.024-0.391-1.414 0s-0.391 1.024 0 1.414zM16.207 8.207l3.5-3.5c0.391-0.391 0.391-1.024 0-1.414s-1.024-0.391-1.414 0l-3.5 3.5c-0.391 0.391-0.391 1.024 0 1.414s1.024 0.391 1.414 0z"></path>
</symbol>
<symbol id="icon-list" viewBox="0 0 24 24">
<path d="M8 7h13c0.552 0 1-0.448 1-1s-0.448-1-1-1h-13c-0.552 0-1 0.448-1 1s0.448 1 1 1zM8 13h13c0.552 0 1-0.448 1-1s-0.448-1-1-1h-13c-0.552 0-1 0.448-1 1s0.448 1 1 1zM8 19h13c0.552 0 1-0.448 1-1s-0.448-1-1-1h-13c-0.552 0-1 0.448-1 1s0.448 1 1 1zM3 7c0.552 0 1-0.448 1-1s-0.448-1-1-1-1 0.448-1 1 0.448 1 1 1zM3 13c0.552 0 1-0.448 1-1s-0.448-1-1-1-1 0.448-1 1 0.448 1 1 1zM3 19c0.552 0 1-0.448 1-1s-0.448-1-1-1-1 0.448-1 1 0.448 1 1 1z"></path>
</symbol>
<symbol id="icon-log-in" viewBox="0 0 24 24">
<path d="M15 4h4c0.276 0 0.525 0.111 0.707 0.293s0.293 0.431 0.293 0.707v14c0 0.276-0.111 0.525-0.293 0.707s-0.431 0.293-0.707 0.293h-4c-0.552 0-1 0.448-1 1s0.448 1 1 1h4c0.828 0 1.58-0.337 2.121-0.879s0.879-1.293 0.879-2.121v-14c0-0.828-0.337-1.58-0.879-2.121s-1.293-0.879-2.121-0.879h-4c-0.552 0-1 0.448-1 1s0.448 1 1 1zM12.586 11h-9.586c-0.552 0-1 0.448-1 1s0.448 1 1 1h9.586l-3.293 3.293c-0.391 0.391-0.391 1.024 0 1.414s1.024 0.391 1.414 0l5-5c0.096-0.096 0.168-0.206 0.217-0.324s0.076-0.247 0.076-0.383c0-0.13-0.025-0.261-0.076-0.383-0.049-0.118-0.121-0.228-0.217-0.324l-5-5c-0.391-0.391-1.024-0.391-1.414 0s-0.391 1.024 0 1.414z"></path>
</symbol>
<symbol id="icon-mail" viewBox="0 0 24 24">
<path d="M3 7.921l8.427 5.899c0.34 0.235 0.795 0.246 1.147 0l8.426-5.899v10.079c0 0.272-0.11 0.521-0.295 0.705s-0.433 0.295-0.705 0.295h-16c-0.272 0-0.521-0.11-0.705-0.295s-0.295-0.433-0.295-0.705zM1 5.983c0 0.010 0 0.020 0 0.030v11.987c0 0.828 0.34 1.579 0.88 2.12s1.292 0.88 2.12 0.88h16c0.828 0 1.579-0.34 2.12-0.88s0.88-1.292 0.88-2.12v-11.988c0-0.010 0-0.020 0-0.030-0.005-0.821-0.343-1.565-0.88-2.102-0.541-0.54-1.292-0.88-2.12-0.88h-16c-0.828 0-1.579 0.34-2.12 0.88-0.537 0.537-0.875 1.281-0.88 2.103zM20.894 5.554l-8.894 6.225-8.894-6.225c0.048-0.096 0.112-0.183 0.188-0.259 0.185-0.185 0.434-0.295 0.706-0.295h16c0.272 0 0.521 0.11 0.705 0.295 0.076 0.076 0.14 0.164 0.188 0.259z"></path>
</symbol>
<symbol id="icon-map" viewBox="0 0 24 24">
<path d="M7 3.723v13.697l-5 2.857v-13.697zM17 20.277v-13.697l5-2.857v13.696zM15.535 22.885c0.082 0.043 0.17 0.075 0.263 0.094 0.033 0.007 0.067 0.012 0.101 0.015s0.068 0.005 0.102 0.005c-0.001 0.001-0.001 0.001-0.001 0.001s0 0 0.001 0c0.173 0 0.344-0.046 0.496-0.132l0.015-0.009 6.985-3.991c0.32-0.183 0.501-0.518 0.503-0.868v-16c0-0.552-0.448-1-1-1-0.183 0-0.354 0.049-0.496 0.132l-6.535 3.734-7.503-3.752c-0.083-0.042-0.171-0.075-0.264-0.094-0.034-0.007-0.067-0.012-0.101-0.015s-0.068-0.005-0.102-0.005c0.001 0 0.001 0 0.001 0s0 0-0.001 0c-0.173 0-0.344 0.046-0.495 0.132l-0.015 0.008-6.985 3.992c-0.321 0.183-0.502 0.518-0.504 0.868v16c0 0.552 0.448 1 1 1 0.183 0 0.354-0.049 0.496-0.132l6.535-3.734zM15 6.618v13.764l-6-3v-13.764z"></path>
</symbol>
<symbol id="icon-message-square" viewBox="0 0 24 24">
<path d="M22 15v-10c0-0.828-0.337-1.58-0.879-2.121s-1.293-0.879-2.121-0.879h-14c-0.828 0-1.58 0.337-2.121 0.879s-0.879 1.293-0.879 2.121v16c0 0.256 0.098 0.512 0.293 0.707 0.391 0.391 1.024 0.391 1.414 0l3.707-3.707h11.586c0.828 0 1.58-0.337 2.121-0.879s0.879-1.293 0.879-2.121zM20 15c0 0.276-0.111 0.525-0.293 0.707s-0.431 0.293-0.707 0.293h-12c-0.276 0-0.526 0.112-0.707 0.293l-2.293 2.293v-13.586c0-0.276 0.111-0.525 0.293-0.707s0.431-0.293 0.707-0.293h14c0.276 0 0.525 0.111 0.707 0.293s0.293 0.431 0.293 0.707z"></path>
</symbol>
<symbol id="icon-plus-circle" viewBox="0 0 24 24">
<path d="M23 12c0-3.037-1.232-5.789-3.222-7.778s-4.741-3.222-7.778-3.222-5.789 1.232-7.778 3.222-3.222 4.741-3.222 7.778 1.232 5.789 3.222 7.778 4.741 3.222 7.778 3.222 5.789-1.232 7.778-3.222 3.222-4.741 3.222-7.778zM21 12c0 2.486-1.006 4.734-2.636 6.364s-3.878 2.636-6.364 2.636-4.734-1.006-6.364-2.636-2.636-3.878-2.636-6.364 1.006-4.734 2.636-6.364 3.878-2.636 6.364-2.636 4.734 1.006 6.364 2.636 2.636 3.878 2.636 6.364zM8 13h3v3c0 0.552 0.448 1 1 1s1-0.448 1-1v-3h3c0.552 0 1-0.448 1-1s-0.448-1-1-1h-3v-3c0-0.552-0.448-1-1-1s-1 0.448-1 1v3h-3c-0.552 0-1 0.448-1 1s0.448 1 1 1z"></path>
</symbol>
<symbol id="icon-printer" viewBox="0 0 24 24">
<path d="M17 8h-10v-5h10zM5 19v3c0 0.552 0.448 1 1 1h12c0.552 0 1-0.448 1-1v-3h1c0.828 0 1.58-0.337 2.121-0.879s0.879-1.293 0.879-2.121v-5c0-0.828-0.337-1.58-0.879-2.121s-1.293-0.879-2.121-0.879h-1v-6c0-0.552-0.448-1-1-1h-12c-0.552 0-1 0.448-1 1v6h-1c-0.828 0-1.58 0.337-2.121 0.879s-0.879 1.293-0.879 2.121v5c0 0.828 0.337 1.58 0.879 2.121s1.293 0.879 2.121 0.879zM6 13c-0.552 0-1 0.448-1 1v3h-1c-0.276 0-0.525-0.111-0.707-0.293s-0.293-0.431-0.293-0.707v-5c0-0.276 0.111-0.525 0.293-0.707s0.431-0.293 0.707-0.293h16c0.276 0 0.525 0.111 0.707 0.293s0.293 0.431 0.293 0.707v5c0 0.276-0.111 0.525-0.293 0.707s-0.431 0.293-0.707 0.293h-1v-3c0-0.552-0.448-1-1-1zM7 15h10v6h-10z"></path>
</symbol>
<symbol id="icon-server" viewBox="0 0 24 24">
<path d="M4 1c-0.828 0-1.58 0.337-2.121 0.879s-0.879 1.293-0.879 2.121v4c0 0.828 0.337 1.58 0.879 2.121s1.293 0.879 2.121 0.879h16c0.828 0 1.58-0.337 2.121-0.879s0.879-1.293 0.879-2.121v-4c0-0.828-0.337-1.58-0.879-2.121s-1.293-0.879-2.121-0.879zM4 3h16c0.276 0 0.525 0.111 0.707 0.293s0.293 0.431 0.293 0.707v4c0 0.276-0.111 0.525-0.293 0.707s-0.431 0.293-0.707 0.293h-16c-0.276 0-0.525-0.111-0.707-0.293s-0.293-0.431-0.293-0.707v-4c0-0.276 0.111-0.525 0.293-0.707s0.431-0.293 0.707-0.293zM4 13c-0.828 0-1.58 0.337-2.121 0.879s-0.879 1.293-0.879 2.121v4c0 0.828 0.337 1.58 0.879 2.121s1.293 0.879 2.121 0.879h16c0.828 0 1.58-0.337 2.121-0.879s0.879-1.293 0.879-2.121v-4c0-0.828-0.337-1.58-0.879-2.121s-1.293-0.879-2.121-0.879zM4 15h16c0.276 0 0.525 0.111 0.707 0.293s0.293 0.431 0.293 0.707v4c0 0.276-0.111 0.525-0.293 0.707s-0.431 0.293-0.707 0.293h-16c-0.276 0-0.525-0.111-0.707-0.293s-0.293-0.431-0.293-0.707v-4c0-0.276 0.111-0.525 0.293-0.707s0.431-0.293 0.707-0.293zM6 7c0.552 0 1-0.448 1-1s-0.448-1-1-1-1 0.448-1 1 0.448 1 1 1zM6 19c0.552 0 1-0.448 1-1s-0.448-1-1-1-1 0.448-1 1 0.448 1 1 1z"></path>
</symbol>
<symbol id="icon-settings" viewBox="0 0 24 24">
<path d="M16 12c0-1.104-0.449-2.106-1.172-2.828s-1.724-1.172-2.828-1.172-2.106 0.449-2.828 1.172-1.172 1.724-1.172 2.828 0.449 2.106 1.172 2.828 1.724 1.172 2.828 1.172 2.106-0.449 2.828-1.172 1.172-1.724 1.172-2.828zM14 12c0 0.553-0.223 1.051-0.586 1.414s-0.861 0.586-1.414 0.586-1.051-0.223-1.414-0.586-0.586-0.861-0.586-1.414 0.223-1.051 0.586-1.414 0.861-0.586 1.414-0.586 1.051 0.223 1.414 0.586 0.586 0.861 0.586 1.414zM20.315 15.404c0.046-0.105 0.112-0.191 0.192-0.257 0.112-0.092 0.251-0.146 0.403-0.147h0.090c0.828 0 1.58-0.337 2.121-0.879s0.879-1.293 0.879-2.121-0.337-1.58-0.879-2.121-1.293-0.879-2.121-0.879h-0.159c-0.11-0.001-0.215-0.028-0.308-0.076-0.127-0.066-0.23-0.172-0.292-0.312-0.003-0.029-0.004-0.059-0.004-0.089-0.024-0.055-0.040-0.111-0.049-0.168 0.020-0.334 0.077-0.454 0.168-0.547l0.062-0.062c0.585-0.586 0.878-1.356 0.877-2.122s-0.294-1.536-0.881-2.122c-0.586-0.585-1.356-0.878-2.122-0.877s-1.536 0.294-2.12 0.879l-0.046 0.046c-0.083 0.080-0.183 0.136-0.288 0.166-0.14 0.039-0.291 0.032-0.438-0.033-0.101-0.044-0.187-0.11-0.253-0.19-0.092-0.112-0.146-0.251-0.147-0.403v-0.090c0-0.828-0.337-1.58-0.879-2.121s-1.293-0.879-2.121-0.879-1.58 0.337-2.121 0.879-0.879 1.293-0.879 2.121v0.159c-0.001 0.11-0.028 0.215-0.076 0.308-0.066 0.127-0.172 0.23-0.312 0.292-0.029 0.003-0.059 0.004-0.089 0.004-0.055 0.024-0.111 0.040-0.168 0.049-0.335-0.021-0.455-0.078-0.548-0.169l-0.062-0.062c-0.586-0.585-1.355-0.878-2.122-0.878s-1.535 0.294-2.122 0.882c-0.585 0.586-0.878 1.355-0.878 2.122s0.294 1.536 0.879 2.12l0.048 0.047c0.080 0.083 0.136 0.183 0.166 0.288 0.039 0.14 0.032 0.291-0.031 0.434-0.006 0.016-0.013 0.034-0.021 0.052-0.041 0.109-0.108 0.203-0.191 0.275-0.11 0.095-0.25 0.153-0.383 0.156h-0.090c-0.828 0-1.58 0.337-2.121 0.879s-0.879 1.294-0.879 2.122 0.337 1.58 0.879 2.121 1.293 0.879 2.121 0.879h0.159c0.11 0.001 0.215 0.028 0.308 0.076 0.128 0.067 0.233 0.174 0.296 0.321 0.024 0.055 0.040 0.111 0.049 0.168-0.020 0.334-0.077 0.454-0.168 0.547l-0.062 0.062c-0.585 0.586-0.878 1.356-0.877 2.122s0.294 1.536 0.881 2.122c0.586 0.585 1.356 0.878 2.122 0.877s1.536-0.294 2.12-0.879l0.047-0.048c0.083-0.080 0.183-0.136 0.288-0.166 0.14-0.039 0.291-0.032 0.434 0.031 0.016 0.006 0.034 0.013 0.052 0.021 0.109 0.041 0.203 0.108 0.275 0.191 0.095 0.11 0.153 0.25 0.156 0.383v0.092c0 0.828 0.337 1.58 0.879 2.121s1.293 0.879 2.121 0.879 1.58-0.337 2.121-0.879 0.879-1.293 0.879-2.121v-0.159c0.001-0.11 0.028-0.215 0.076-0.308 0.067-0.128 0.174-0.233 0.321-0.296 0.055-0.024 0.111-0.040 0.168-0.049 0.334 0.020 0.454 0.077 0.547 0.168l0.062 0.062c0.586 0.585 1.356 0.878 2.122 0.877s1.536-0.294 2.122-0.881c0.585-0.586 0.878-1.356 0.877-2.122s-0.294-1.536-0.879-2.12l-0.048-0.047c-0.080-0.083-0.136-0.183-0.166-0.288-0.039-0.14-0.032-0.291 0.031-0.434zM18.396 9.302c-0.012-0.201-0.038-0.297-0.076-0.382v0.080c0 0.043 0.003 0.084 0.008 0.125 0.021 0.060 0.043 0.119 0.068 0.177 0.004 0.090 0.005 0.091 0.005 0.092 0.249 0.581 0.684 1.030 1.208 1.303 0.371 0.193 0.785 0.298 1.211 0.303h0.18c0.276 0 0.525 0.111 0.707 0.293s0.293 0.431 0.293 0.707-0.111 0.525-0.293 0.707-0.431 0.293-0.707 0.293h-0.090c-0.637 0.003-1.22 0.228-1.675 0.603-0.323 0.266-0.581 0.607-0.75 0.993-0.257 0.582-0.288 1.21-0.127 1.782 0.119 0.423 0.341 0.814 0.652 1.136l0.072 0.073c0.196 0.196 0.294 0.45 0.294 0.707s-0.097 0.512-0.292 0.707c-0.197 0.197-0.451 0.295-0.709 0.295s-0.512-0.097-0.707-0.292l-0.061-0.061c-0.463-0.453-1.040-0.702-1.632-0.752-0.437-0.037-0.882 0.034-1.293 0.212-0.578 0.248-1.027 0.683-1.3 1.206-0.193 0.371-0.298 0.785-0.303 1.211v0.181c0 0.276-0.111 0.525-0.293 0.707s-0.43 0.292-0.706 0.292-0.525-0.111-0.707-0.293-0.293-0.431-0.293-0.707v-0.090c-0.015-0.66-0.255-1.242-0.644-1.692-0.284-0.328-0.646-0.585-1.058-0.744-0.575-0.247-1.193-0.274-1.756-0.116-0.423 0.119-0.814 0.341-1.136 0.652l-0.073 0.072c-0.196 0.196-0.45 0.294-0.707 0.294s-0.512-0.097-0.707-0.292c-0.197-0.197-0.295-0.451-0.295-0.709s0.097-0.512 0.292-0.707l0.061-0.061c0.453-0.463 0.702-1.040 0.752-1.632 0.037-0.437-0.034-0.882-0.212-1.293-0.248-0.578-0.683-1.027-1.206-1.3-0.371-0.193-0.785-0.298-1.211-0.303l-0.18 0.001c-0.276 0-0.525-0.111-0.707-0.293s-0.293-0.431-0.293-0.707 0.111-0.525 0.293-0.707 0.431-0.293 0.707-0.293h0.090c0.66-0.015 1.242-0.255 1.692-0.644 0.328-0.284 0.585-0.646 0.744-1.058 0.247-0.575 0.274-1.193 0.116-1.756-0.119-0.423-0.341-0.814-0.652-1.136l-0.073-0.073c-0.196-0.196-0.294-0.45-0.294-0.707s0.097-0.512 0.292-0.707c0.197-0.197 0.451-0.295 0.709-0.295s0.512 0.097 0.707 0.292l0.061 0.061c0.463 0.453 1.040 0.702 1.632 0.752 0.37 0.032 0.745-0.014 1.101-0.137 0.096-0.012 0.186-0.036 0.266-0.072-0.031 0.001-0.061 0.003-0.089 0.004-0.201 0.012-0.297 0.038-0.382 0.076h0.080c0.043 0 0.084-0.003 0.125-0.008 0.060-0.021 0.119-0.043 0.177-0.068 0.090-0.004 0.091-0.005 0.092-0.005 0.581-0.249 1.030-0.684 1.303-1.208 0.193-0.37 0.298-0.785 0.303-1.21v-0.181c0-0.276 0.111-0.525 0.293-0.707s0.431-0.293 0.707-0.293 0.525 0.111 0.707 0.293 0.293 0.431 0.293 0.707v0.090c0.003 0.637 0.228 1.22 0.603 1.675 0.266 0.323 0.607 0.581 0.996 0.751 0.578 0.255 1.206 0.286 1.778 0.125 0.423-0.119 0.814-0.341 1.136-0.652l0.073-0.072c0.196-0.196 0.45-0.294 0.707-0.294s0.512 0.097 0.707 0.292c0.197 0.197 0.295 0.451 0.295 0.709s-0.097 0.512-0.292 0.707l-0.061 0.061c-0.453 0.463-0.702 1.040-0.752 1.632-0.032 0.37 0.014 0.745 0.137 1.101 0.012 0.095 0.037 0.185 0.072 0.266-0.001-0.032-0.002-0.062-0.004-0.089z"></path>
</symbol>
<symbol id="icon-shopping-cart" viewBox="0 0 24 24">
<path d="M11 21c0-0.552-0.225-1.053-0.586-1.414s-0.862-0.586-1.414-0.586-1.053 0.225-1.414 0.586-0.586 0.862-0.586 1.414 0.225 1.053 0.586 1.414 0.862 0.586 1.414 0.586 1.053-0.225 1.414-0.586 0.586-0.862 0.586-1.414zM22 21c0-0.552-0.225-1.053-0.586-1.414s-0.862-0.586-1.414-0.586-1.053 0.225-1.414 0.586-0.586 0.862-0.586 1.414 0.225 1.053 0.586 1.414 0.862 0.586 1.414 0.586 1.053-0.225 1.414-0.586 0.586-0.862 0.586-1.414zM7.221 7h14.57l-1.371 7.191c-0.046 0.228-0.166 0.425-0.332 0.568-0.18 0.156-0.413 0.246-0.688 0.241h-9.734c-0.232 0.003-0.451-0.071-0.626-0.203-0.19-0.143-0.329-0.351-0.379-0.603zM1 2h3.18l0.848 4.239c0.108 0.437 0.502 0.761 0.972 0.761h1.221l-0.4-2h-0.821c-0.552 0-1 0.448-1 1 0 0.053 0.004 0.105 0.012 0.155 0.004 0.028 0.010 0.057 0.017 0.084l1.671 8.347c0.149 0.751 0.57 1.383 1.14 1.811 0.521 0.392 1.17 0.613 1.854 0.603h9.706c0.748 0.015 1.455-0.261 1.995-0.727 0.494-0.426 0.848-1.013 0.985-1.683l1.602-8.402c0.103-0.543-0.252-1.066-0.795-1.17-0.065-0.013-0.13-0.019-0.187-0.018h-16.18l-0.84-4.196c-0.094-0.462-0.497-0.804-0.98-0.804h-4c-0.552 0-1 0.448-1 1s0.448 1 1 1z"></path>
</symbol>
<symbol id="icon-sliders" viewBox="0 0 24 24">
<path d="M5 10v-7c0-0.552-0.448-1-1-1s-1 0.448-1 1v7c0 0.552 0.448 1 1 1s1-0.448 1-1zM13 21v-9c0-0.552-0.448-1-1-1s-1 0.448-1 1v9c0 0.552 0.448 1 1 1s1-0.448 1-1zM21 12v-9c0-0.552-0.448-1-1-1s-1 0.448-1 1v9c0 0.552 0.448 1 1 1s1-0.448 1-1zM1 15h2v6c0 0.552 0.448 1 1 1s1-0.448 1-1v-6h2c0.552 0 1-0.448 1-1s-0.448-1-1-1h-6c-0.552 0-1 0.448-1 1s0.448 1 1 1zM9 9h6c0.552 0 1-0.448 1-1s-0.448-1-1-1h-2v-4c0-0.552-0.448-1-1-1s-1 0.448-1 1v4h-2c-0.552 0-1 0.448-1 1s0.448 1 1 1zM17 17h2v4c0 0.552 0.448 1 1 1s1-0.448 1-1v-4h2c0.552 0 1-0.448 1-1s-0.448-1-1-1h-6c-0.552 0-1 0.448-1 1s0.448 1 1 1z"></path>
</symbol>
<symbol id="icon-tag" viewBox="0 0 24 24">
<path d="M21.297 14.117c0.583-0.586 0.874-1.352 0.874-2.115 0.001-0.764-0.29-1.532-0.874-2.12l-8.59-8.59c-0.181-0.18-0.431-0.292-0.707-0.292h-10c-0.552 0-1 0.448-1 1v10c0 0.256 0.098 0.512 0.293 0.708l8.592 8.582c0.586 0.585 1.356 0.878 2.122 0.877s1.536-0.294 2.12-0.879zM19.883 12.703l-7.17 7.17c-0.196 0.196-0.45 0.294-0.707 0.294s-0.512-0.097-0.707-0.292l-8.299-8.29v-8.585h8.586l8.297 8.297c0.192 0.193 0.289 0.447 0.289 0.704s-0.097 0.509-0.289 0.702zM7 8c0.552 0 1-0.448 1-1s-0.448-1-1-1-1 0.448-1 1 0.448 1 1 1z"></path>
</symbol>
<symbol id="icon-tool" viewBox="0 0 24 24">
<path d="M15.407 6.993l3.77-3.756c0.081-0.079 0.152-0.18 0.205-0.296 0.227-0.504 0.002-1.096-0.501-1.322-0.263-0.118-0.532-0.22-0.807-0.306-1.582-0.492-3.34-0.428-4.963 0.307-1.761 0.797-3.033 2.234-3.664 3.909-0.554 1.467-0.617 3.124-0.087 4.697l-6.447 6.447c-0.609 0.609-0.914 1.41-0.914 2.207s0.305 1.598 0.914 2.207 1.41 0.914 2.207 0.914 1.598-0.305 2.207-0.914l6.448-6.448c0.050 0.017 0.1 0.033 0.151 0.049 1.582 0.492 3.34 0.428 4.963-0.307 1.761-0.797 3.033-2.234 3.664-3.909s0.624-3.594-0.173-5.355c-0.045-0.103-0.114-0.205-0.204-0.295-0.391-0.391-1.024-0.391-1.414 0l-3.756 3.77zM13.986 5.6c-0.383 0.39-0.573 0.9-0.572 1.406 0.002 0.502 0.192 1.007 0.571 1.394l1.607 1.608c0.398 0.39 0.907 0.58 1.413 0.579 0.502-0.002 1.007-0.192 1.394-0.571l2.574-2.574c0.090 0.796-0.015 1.593-0.291 2.326-0.452 1.199-1.359 2.222-2.617 2.792-1.16 0.525-2.412 0.571-3.545 0.219-0.197-0.061-0.391-0.135-0.579-0.22-0.387-0.174-0.827-0.082-1.118 0.205l-6.91 6.91c-0.219 0.219-0.504 0.328-0.793 0.328s-0.574-0.109-0.793-0.328-0.328-0.504-0.328-0.793 0.109-0.574 0.328-0.793l6.91-6.91c0.301-0.301 0.37-0.746 0.204-1.119-0.569-1.258-0.575-2.626-0.123-3.825s1.359-2.222 2.617-2.792c0.852-0.386 1.755-0.513 2.623-0.413z"></path>
</symbol>
<symbol id="icon-trash-2" viewBox="0 0 24 24">
<path d="M18 7v13c0 0.276-0.111 0.525-0.293 0.707s-0.431 0.293-0.707 0.293h-10c-0.276 0-0.525-0.111-0.707-0.293s-0.293-0.431-0.293-0.707v-13zM17 5v-1c0-0.828-0.337-1.58-0.879-2.121s-1.293-0.879-2.121-0.879h-4c-0.828 0-1.58 0.337-2.121 0.879s-0.879 1.293-0.879 2.121v1h-4c-0.552 0-1 0.448-1 1s0.448 1 1 1h1v13c0 0.828 0.337 1.58 0.879 2.121s1.293 0.879 2.121 0.879h10c0.828 0 1.58-0.337 2.121-0.879s0.879-1.293 0.879-2.121v-13h1c0.552 0 1-0.448 1-1s-0.448-1-1-1zM9 5v-1c0-0.276 0.111-0.525 0.293-0.707s0.431-0.293 0.707-0.293h4c0.276 0 0.525 0.111 0.707 0.293s0.293 0.431 0.293 0.707v1zM9 11v6c0 0.552 0.448 1 1 1s1-0.448 1-1v-6c0-0.552-0.448-1-1-1s-1 0.448-1 1zM13 11v6c0 0.552 0.448 1 1 1s1-0.448 1-1v-6c0-0.552-0.448-1-1-1s-1 0.448-1 1z"></path>
</symbol>
<symbol id="icon-trending-down" viewBox="0 0 24 24">
<path d="M17 19h6c0.136 0 0.265-0.027 0.383-0.076s0.228-0.121 0.324-0.217 0.168-0.206 0.217-0.324c0.049-0.118 0.076-0.247 0.076-0.383v-6c0-0.552-0.448-1-1-1s-1 0.448-1 1v3.586l-7.793-7.793c-0.391-0.391-1.024-0.391-1.414 0l-4.293 4.293-6.793-6.793c-0.391-0.391-1.024-0.391-1.414 0s-0.391 1.024 0 1.414l7.5 7.5c0.391 0.391 1.024 0.391 1.414 0l4.293-4.293 7.086 7.086h-3.586c-0.552 0-1 0.448-1 1s0.448 1 1 1z"></path>
</symbol>
<symbol id="icon-trending-up" viewBox="0 0 24 24">
<path d="M17 7h3.586l-7.086 7.086-4.293-4.293c-0.391-0.391-1.024-0.391-1.414 0l-7.5 7.5c-0.391 0.391-0.391 1.024 0 1.414s1.024 0.391 1.414 0l6.793-6.793 4.293 4.293c0.391 0.391 1.024 0.391 1.414 0l7.793-7.793v3.586c0 0.552 0.448 1 1 1s1-0.448 1-1v-6c0-0.136-0.027-0.265-0.076-0.383s-0.121-0.228-0.216-0.323c-0.001-0.001-0.001-0.001-0.002-0.002-0.092-0.092-0.202-0.166-0.323-0.216-0.118-0.049-0.247-0.076-0.383-0.076h-6c-0.552 0-1 0.448-1 1s0.448 1 1 1z"></path>
</symbol>
<symbol id="icon-truck" viewBox="0 0 24 24">
<path d="M15 15h-13v-11h13v4zM17 9h2.586l2.414 2.414v3.586h-5zM7 18.5c0 0.414-0.167 0.788-0.439 1.061s-0.647 0.439-1.061 0.439-0.788-0.167-1.061-0.439-0.439-0.647-0.439-1.061 0.167-0.788 0.439-1.061 0.647-0.439 1.061-0.439 0.788 0.167 1.061 0.439 0.439 0.647 0.439 1.061zM22 18.5c0-0.537-0.121-1.045-0.337-1.5h1.337c0.552 0 1-0.448 1-1v-5c0-0.256-0.098-0.512-0.293-0.707l-3-3c-0.181-0.181-0.431-0.293-0.707-0.293h-3v-4c0-0.552-0.448-1-1-1h-15c-0.552 0-1 0.448-1 1v13c0 0.552 0.448 1 1 1h1.337c-0.216 0.455-0.337 0.963-0.337 1.5 0 0.966 0.393 1.843 1.025 2.475s1.509 1.025 2.475 1.025 1.843-0.393 2.475-1.025 1.025-1.509 1.025-2.475c0-0.537-0.121-1.045-0.337-1.5h6.674c-0.216 0.455-0.337 0.963-0.337 1.5 0 0.966 0.393 1.843 1.025 2.475s1.509 1.025 2.475 1.025 1.843-0.393 2.475-1.025 1.025-1.509 1.025-2.475zM20 18.5c0 0.414-0.167 0.788-0.439 1.061s-0.647 0.439-1.061 0.439-0.788-0.167-1.061-0.439-0.439-0.647-0.439-1.061 0.167-0.788 0.439-1.061 0.647-0.439 1.061-0.439 0.788 0.167 1.061 0.439 0.439 0.647 0.439 1.061z"></path>
</symbol>
<symbol id="icon-twitch" viewBox="0 0 24 24">
<path d="M20 3v10.586l-3.414 3.414h-4.586c-0.256 0-0.512 0.098-0.707 0.293l-2.293 2.293v-1.586c0-0.552-0.448-1-1-1h-4v-14zM21 1h-18c-0.552 0-1 0.448-1 1v16c0 0.552 0.448 1 1 1h4v3c0 0.552 0.448 1 1 1 0.276 0 0.526-0.112 0.707-0.293l3.707-3.707h4.586c0.276 0 0.526-0.112 0.707-0.293l4-4c0.195-0.195 0.293-0.451 0.293-0.707v-12c0-0.552-0.448-1-1-1zM12 11v-4c0-0.552-0.448-1-1-1s-1 0.448-1 1v4c0 0.552 0.448 1 1 1s1-0.448 1-1zM17 11v-4c0-0.552-0.448-1-1-1s-1 0.448-1 1v4c0 0.552 0.448 1 1 1s1-0.448 1-1z"></path>
</symbol>
<symbol id="icon-user" viewBox="0 0 24 24">
<path d="M21 21v-2c0-1.38-0.561-2.632-1.464-3.536s-2.156-1.464-3.536-1.464h-8c-1.38 0-2.632 0.561-3.536 1.464s-1.464 2.156-1.464 3.536v2c0 0.552 0.448 1 1 1s1-0.448 1-1v-2c0-0.829 0.335-1.577 0.879-2.121s1.292-0.879 2.121-0.879h8c0.829 0 1.577 0.335 2.121 0.879s0.879 1.292 0.879 2.121v2c0 0.552 0.448 1 1 1s1-0.448 1-1zM17 7c0-1.38-0.561-2.632-1.464-3.536s-2.156-1.464-3.536-1.464-2.632 0.561-3.536 1.464-1.464 2.156-1.464 3.536 0.561 2.632 1.464 3.536 2.156 1.464 3.536 1.464 2.632-0.561 3.536-1.464 1.464-2.156 1.464-3.536zM15 7c0 0.829-0.335 1.577-0.879 2.121s-1.292 0.879-2.121 0.879-1.577-0.335-2.121-0.879-0.879-1.292-0.879-2.121 0.335-1.577 0.879-2.121 1.292-0.879 2.121-0.879 1.577 0.335 2.121 0.879 0.879 1.292 0.879 2.121z"></path>
</symbol>
<symbol id="icon-user-minus" viewBox="0 0 24 24">
<path d="M17 21v-2c0-1.38-0.561-2.632-1.464-3.536s-2.156-1.464-3.536-1.464h-7c-1.38 0-2.632 0.561-3.536 1.464s-1.464 2.156-1.464 3.536v2c0 0.552 0.448 1 1 1s1-0.448 1-1v-2c0-0.829 0.335-1.577 0.879-2.121s1.292-0.879 2.121-0.879h7c0.829 0 1.577 0.335 2.121 0.879s0.879 1.292 0.879 2.121v2c0 0.552 0.448 1 1 1s1-0.448 1-1zM13.5 7c0-1.38-0.561-2.632-1.464-3.536s-2.156-1.464-3.536-1.464-2.632 0.561-3.536 1.464-1.464 2.156-1.464 3.536 0.561 2.632 1.464 3.536 2.156 1.464 3.536 1.464 2.632-0.561 3.536-1.464 1.464-2.156 1.464-3.536zM11.5 7c0 0.829-0.335 1.577-0.879 2.121s-1.292 0.879-2.121 0.879-1.577-0.335-2.121-0.879-0.879-1.292-0.879-2.121 0.335-1.577 0.879-2.121 1.292-0.879 2.121-0.879 1.577 0.335 2.121 0.879 0.879 1.292 0.879 2.121zM23 10h-6c-0.552 0-1 0.448-1 1s0.448 1 1 1h6c0.552 0 1-0.448 1-1s-0.448-1-1-1z"></path>
</symbol>
<symbol id="icon-users" viewBox="0 0 24 24">
<path d="M18 21v-2c0-1.38-0.561-2.632-1.464-3.536s-2.156-1.464-3.536-1.464h-8c-1.38 0-2.632 0.561-3.536 1.464s-1.464 2.156-1.464 3.536v2c0 0.552 0.448 1 1 1s1-0.448 1-1v-2c0-0.829 0.335-1.577 0.879-2.121s1.292-0.879 2.121-0.879h8c0.829 0 1.577 0.335 2.121 0.879s0.879 1.292 0.879 2.121v2c0 0.552 0.448 1 1 1s1-0.448 1-1zM14 7c0-1.38-0.561-2.632-1.464-3.536s-2.156-1.464-3.536-1.464-2.632 0.561-3.536 1.464-1.464 2.156-1.464 3.536 0.561 2.632 1.464 3.536 2.156 1.464 3.536 1.464 2.632-0.561 3.536-1.464 1.464-2.156 1.464-3.536zM12 7c0 0.829-0.335 1.577-0.879 2.121s-1.292 0.879-2.121 0.879-1.577-0.335-2.121-0.879-0.879-1.292-0.879-2.121 0.335-1.577 0.879-2.121 1.292-0.879 2.121-0.879 1.577 0.335 2.121 0.879 0.879 1.292 0.879 2.121zM24 21v-2c-0.001-1.245-0.457-2.385-1.215-3.261-0.652-0.753-1.528-1.311-2.529-1.576-0.534-0.141-1.081 0.177-1.222 0.711s0.177 1.081 0.711 1.222c0.607 0.161 1.136 0.498 1.528 0.952 0.454 0.526 0.726 1.206 0.727 1.952v2c0 0.552 0.448 1 1 1s1-0.448 1-1zM15.752 4.099c0.803 0.206 1.445 0.715 1.837 1.377s0.531 1.47 0.325 2.273c-0.176 0.688-0.575 1.256-1.105 1.652-0.314 0.235-0.675 0.409-1.063 0.511-0.534 0.14-0.854 0.687-0.713 1.221s0.687 0.854 1.221 0.713c0.637-0.167 1.232-0.455 1.752-0.844 0.884-0.66 1.552-1.613 1.845-2.758 0.342-1.337 0.11-2.689-0.542-3.788s-1.725-1.953-3.062-2.296c-0.535-0.137-1.080 0.186-1.217 0.721s0.186 1.080 0.721 1.217z"></path>
</symbol>
<symbol id="icon-bookmark1" viewBox="0 0 24 24">
<path d="M18.419 21.814c0.161 0.116 0.363 0.186 0.581 0.186 0.552 0 1-0.448 1-1v-16c0-0.828-0.337-1.58-0.879-2.121s-1.293-0.879-2.121-0.879h-10c-0.828 0-1.58 0.337-2.121 0.879s-0.879 1.293-0.879 2.121v16c-0.001 0.199 0.060 0.404 0.186 0.581 0.321 0.449 0.946 0.554 1.395 0.232l6.419-4.584zM18 19.057l-5.419-3.871c-0.355-0.254-0.819-0.242-1.162 0l-5.419 3.871v-14.057c0-0.276 0.111-0.525 0.293-0.707s0.431-0.293 0.707-0.293h10c0.276 0 0.525 0.111 0.707 0.293s0.293 0.431 0.293 0.707z"></path>
</symbol>
<symbol id="icon-eye" viewBox="0 0 24 24">
<path d="M0.106 11.553c-0.136 0.274-0.146 0.603 0 0.894 0 0 0.396 0.789 1.12 1.843 0.451 0.656 1.038 1.432 1.757 2.218 0.894 0.979 2.004 1.987 3.319 2.8 1.595 0.986 3.506 1.692 5.698 1.692s4.103-0.706 5.698-1.692c1.315-0.813 2.425-1.821 3.319-2.8 0.718-0.786 1.306-1.562 1.757-2.218 0.724-1.054 1.12-1.843 1.12-1.843 0.136-0.274 0.146-0.603 0-0.894 0 0-0.396-0.789-1.12-1.843-0.451-0.656-1.038-1.432-1.757-2.218-0.894-0.979-2.004-1.987-3.319-2.8-1.595-0.986-3.506-1.692-5.698-1.692s-4.103 0.706-5.698 1.692c-1.315 0.813-2.425 1.821-3.319 2.8-0.719 0.786-1.306 1.561-1.757 2.218-0.724 1.054-1.12 1.843-1.12 1.843zM2.14 12c0.163-0.281 0.407-0.681 0.734-1.158 0.41-0.596 0.94-1.296 1.585-2.001 0.805-0.881 1.775-1.756 2.894-2.448 1.35-0.834 2.901-1.393 4.647-1.393s3.297 0.559 4.646 1.393c1.119 0.692 2.089 1.567 2.894 2.448 0.644 0.705 1.175 1.405 1.585 2.001 0.328 0.477 0.572 0.876 0.734 1.158-0.163 0.281-0.407 0.681-0.734 1.158-0.41 0.596-0.94 1.296-1.585 2.001-0.805 0.881-1.775 1.756-2.894 2.448-1.349 0.834-2.9 1.393-4.646 1.393s-3.297-0.559-4.646-1.393c-1.119-0.692-2.089-1.567-2.894-2.448-0.644-0.705-1.175-1.405-1.585-2.001-0.328-0.477-0.572-0.877-0.735-1.158zM16 12c0-1.104-0.449-2.106-1.172-2.828s-1.724-1.172-2.828-1.172-2.106 0.449-2.828 1.172-1.172 1.724-1.172 2.828 0.449 2.106 1.172 2.828 1.724 1.172 2.828 1.172 2.106-0.449 2.828-1.172 1.172-1.724 1.172-2.828zM14 12c0 0.553-0.223 1.051-0.586 1.414s-0.861 0.586-1.414 0.586-1.051-0.223-1.414-0.586-0.586-0.861-0.586-1.414 0.223-1.051 0.586-1.414 0.861-0.586 1.414-0.586 1.051 0.223 1.414 0.586 0.586 0.861 0.586 1.414z"></path>
</symbol>
<symbol id="icon-eye-off" viewBox="0 0 24 24">
<path d="M10.128 5.214c0.651-0.152 1.296-0.221 1.86-0.214 1.758 0 3.309 0.559 4.658 1.393 1.119 0.692 2.089 1.567 2.894 2.448 0.644 0.705 1.175 1.405 1.585 2.001 0.327 0.475 0.57 0.874 0.733 1.155-0.546 0.953-1.16 1.821-1.778 2.542-0.359 0.419-0.311 1.051 0.108 1.41s1.051 0.311 1.41-0.108c0.818-0.954 1.611-2.112 2.283-3.37 0.148-0.279 0.163-0.618 0.013-0.919 0 0-0.396-0.789-1.12-1.843-0.451-0.656-1.038-1.432-1.757-2.218-0.894-0.979-2.004-1.987-3.319-2.8-1.595-0.985-3.506-1.691-5.686-1.691-0.734-0.009-1.54 0.079-2.34 0.266-0.538 0.126-0.872 0.664-0.746 1.202s0.664 0.872 1.202 0.746zM10.027 11.442l2.531 2.531c-0.182 0.061-0.372 0.094-0.563 0.101-0.513 0.018-1.030-0.159-1.434-0.536s-0.617-0.88-0.635-1.393c-0.008-0.238 0.025-0.476 0.101-0.704zM5.983 7.397l2.553 2.553c-0.434 0.691-0.636 1.484-0.608 2.266 0.036 1.022 0.463 2.033 1.271 2.785s1.846 1.107 2.868 1.071c0.692-0.024 1.379-0.228 1.984-0.608l2.322 2.322c-1.378 0.799-2.895 1.196-4.384 1.214-1.734 0-3.285-0.559-4.634-1.393-1.119-0.692-2.089-1.567-2.894-2.448-0.644-0.705-1.175-1.405-1.585-2.001-0.326-0.475-0.57-0.873-0.732-1.154 1.050-1.822 2.376-3.379 3.841-4.607zM0.293 1.707l4.271 4.271c-1.731 1.479-3.269 3.358-4.445 5.549-0.148 0.279-0.164 0.619-0.013 0.92 0 0 0.396 0.789 1.12 1.843 0.451 0.656 1.038 1.432 1.757 2.218 0.894 0.979 2.004 1.987 3.319 2.8 1.595 0.986 3.506 1.692 5.71 1.692 1.993-0.024 4.019-0.601 5.815-1.759l4.466 4.466c0.391 0.391 1.024 0.391 1.414 0s0.391-1.024 0-1.414l-8.876-8.876c-0.002-0.002-0.005-0.005-0.007-0.007l-4.209-4.21c-0.008-0.007-0.016-0.016-0.024-0.024l-8.884-8.883c-0.391-0.391-1.024-0.391-1.414 0s-0.391 1.024 0 1.414z"></path>
</symbol>
<symbol id="icon-help-circle" viewBox="0 0 24 24">
<path d="M23 12c0-3.037-1.232-5.789-3.222-7.778s-4.741-3.222-7.778-3.222-5.789 1.232-7.778 3.222-3.222 4.741-3.222 7.778 1.232 5.789 3.222 7.778 4.741 3.222 7.778 3.222 5.789-1.232 7.778-3.222 3.222-4.741 3.222-7.778zM21 12c0 2.486-1.006 4.734-2.636 6.364s-3.878 2.636-6.364 2.636-4.734-1.006-6.364-2.636-2.636-3.878-2.636-6.364 1.006-4.734 2.636-6.364 3.878-2.636 6.364-2.636 4.734 1.006 6.364 2.636 2.636 3.878 2.636 6.364zM10.033 9.332c0.183-0.521 0.559-0.918 1.022-1.14s1.007-0.267 1.528-0.083c0.458 0.161 0.819 0.47 1.050 0.859 0.183 0.307 0.284 0.665 0.286 1.037 0 0.155-0.039 0.309-0.117 0.464-0.080 0.16-0.203 0.325-0.368 0.49-0.709 0.709-1.831 1.092-1.831 1.092-0.524 0.175-0.807 0.741-0.632 1.265s0.741 0.807 1.265 0.632c0 0 1.544-0.506 2.613-1.575 0.279-0.279 0.545-0.614 0.743-1.010 0.2-0.4 0.328-0.858 0.328-1.369-0.004-0.731-0.204-1.437-0.567-2.049-0.463-0.778-1.19-1.402-2.105-1.724-1.042-0.366-2.135-0.275-3.057 0.167s-1.678 1.238-2.044 2.28c-0.184 0.521 0.090 1.092 0.611 1.275s1.092-0.091 1.275-0.611zM12 18c0.552 0 1-0.448 1-1s-0.448-1-1-1-1 0.448-1 1 0.448 1 1 1z"></path>
</symbol>
<symbol id="icon-lock" viewBox="0 0 24 24">
<path d="M5 12h14c0.276 0 0.525 0.111 0.707 0.293s0.293 0.431 0.293 0.707v7c0 0.276-0.111 0.525-0.293 0.707s-0.431 0.293-0.707 0.293h-14c-0.276 0-0.525-0.111-0.707-0.293s-0.293-0.431-0.293-0.707v-7c0-0.276 0.111-0.525 0.293-0.707s0.431-0.293 0.707-0.293zM18 10v-3c0-1.657-0.673-3.158-1.757-4.243s-2.586-1.757-4.243-1.757-3.158 0.673-4.243 1.757-1.757 2.586-1.757 4.243v3h-1c-0.828 0-1.58 0.337-2.121 0.879s-0.879 1.293-0.879 2.121v7c0 0.828 0.337 1.58 0.879 2.121s1.293 0.879 2.121 0.879h14c0.828 0 1.58-0.337 2.121-0.879s0.879-1.293 0.879-2.121v-7c0-0.828-0.337-1.58-0.879-2.121s-1.293-0.879-2.121-0.879zM8 10v-3c0-1.105 0.447-2.103 1.172-2.828s1.723-1.172 2.828-1.172 2.103 0.447 2.828 1.172 1.172 1.723 1.172 2.828v3z"></path>
</symbol>
<symbol id="icon-mail1" viewBox="0 0 24 24">
<path d="M3 7.921l8.427 5.899c0.34 0.235 0.795 0.246 1.147 0l8.426-5.899v10.079c0 0.272-0.11 0.521-0.295 0.705s-0.433 0.295-0.705 0.295h-16c-0.272 0-0.521-0.11-0.705-0.295s-0.295-0.433-0.295-0.705zM1 5.983c0 0.010 0 0.020 0 0.030v11.987c0 0.828 0.34 1.579 0.88 2.12s1.292 0.88 2.12 0.88h16c0.828 0 1.579-0.34 2.12-0.88s0.88-1.292 0.88-2.12v-11.988c0-0.010 0-0.020 0-0.030-0.005-0.821-0.343-1.565-0.88-2.102-0.541-0.54-1.292-0.88-2.12-0.88h-16c-0.828 0-1.579 0.34-2.12 0.88-0.537 0.537-0.875 1.281-0.88 2.103zM20.894 5.554l-8.894 6.225-8.894-6.225c0.048-0.096 0.112-0.183 0.188-0.259 0.185-0.185 0.434-0.295 0.706-0.295h16c0.272 0 0.521 0.11 0.705 0.295 0.076 0.076 0.14 0.164 0.188 0.259z"></path>
</symbol>
<symbol id="icon-minus" viewBox="0 0 24 24">
<path d="M5 13h14c0.552 0 1-0.448 1-1s-0.448-1-1-1h-14c-0.552 0-1 0.448-1 1s0.448 1 1 1z"></path>
</symbol>
<symbol id="icon-phone" viewBox="0 0 24 24">
<path d="M23 16.92c0.016-0.714-0.236-1.404-0.673-1.943-0.46-0.566-1.129-0.967-1.925-1.080-0.8-0.098-1.695-0.314-2.586-0.646-0.433-0.159-0.893-0.218-1.344-0.174-0.663 0.064-1.307 0.349-1.819 0.855l-0.72 0.72c-1.77-1.117-3.36-2.667-4.583-4.589l0.726-0.726c0.322-0.33 0.563-0.726 0.707-1.156 0.212-0.632 0.214-1.336-0.039-2.011-0.289-0.753-0.518-1.644-0.644-2.595-0.104-0.714-0.456-1.345-0.963-1.804-0.539-0.486-1.256-0.779-2.027-0.771h-2.996c-0.088 0-0.182 0.004-0.273 0.012-0.824 0.075-1.542 0.478-2.033 1.066s-0.758 1.367-0.683 2.199c0.3 3.076 1.365 6.243 3.216 9.102 1.502 2.413 3.648 4.623 6.298 6.306 2.568 1.697 5.684 2.862 9.086 3.231 0.092 0.009 0.191 0.013 0.288 0.013 0.828-0.003 1.578-0.343 2.118-0.887s0.873-1.297 0.87-2.121zM21 16.92v3c0.001 0.28-0.109 0.53-0.29 0.712s-0.429 0.295-0.706 0.296c-3.149-0.336-5.961-1.391-8.263-2.912-2.428-1.543-4.359-3.537-5.702-5.694-1.697-2.62-2.655-5.481-2.924-8.238-0.024-0.268 0.064-0.526 0.229-0.724s0.403-0.33 0.678-0.355l3.088-0.005c0.271-0.003 0.507 0.094 0.687 0.256 0.17 0.154 0.288 0.366 0.323 0.608 0.142 1.072 0.408 2.117 0.757 3.025 0.081 0.216 0.080 0.447 0.010 0.658-0.049 0.145-0.131 0.281-0.242 0.395l-1.262 1.261c-0.324 0.324-0.379 0.814-0.162 1.201 1.584 2.785 3.839 4.957 6.381 6.378 0.397 0.222 0.882 0.144 1.195-0.166l1.27-1.27c0.166-0.164 0.377-0.257 0.598-0.279 0.152-0.015 0.31 0.005 0.459 0.060 1.022 0.381 2.070 0.636 3.034 0.754 0.241 0.034 0.462 0.166 0.615 0.355 0.147 0.181 0.231 0.412 0.226 0.682z"></path>
</symbol>
<symbol id="icon-plus" viewBox="0 0 24 24">
<path d="M5 13h6v6c0 0.552 0.448 1 1 1s1-0.448 1-1v-6h6c0.552 0 1-0.448 1-1s-0.448-1-1-1h-6v-6c0-0.552-0.448-1-1-1s-1 0.448-1 1v6h-6c-0.552 0-1 0.448-1 1s0.448 1 1 1z"></path>
</symbol>
<symbol id="icon-refresh-cw" viewBox="0 0 24 24">
<path d="M4.453 9.334c0.737-2.083 2.247-3.669 4.096-4.552s4.032-1.059 6.114-0.322c1.186 0.42 2.206 1.088 2.983 1.88l2.83 2.66h-3.476c-0.552 0-1 0.448-1 1s0.448 1 1 1h5.997c0.005 0 0.009 0 0.014 0 0.137-0.001 0.268-0.031 0.386-0.082 0.119-0.051 0.229-0.126 0.324-0.225 0.012-0.013 0.024-0.026 0.036-0.039 0.075-0.087 0.133-0.183 0.173-0.285s0.064-0.211 0.069-0.326c0.001-0.015 0.001-0.029 0.001-0.043v-6c0-0.552-0.448-1-1-1s-1 0.448-1 1v3.689l-2.926-2.749c-0.992-1.010-2.271-1.843-3.743-2.364-2.603-0.921-5.335-0.699-7.643 0.402s-4.199 3.086-5.12 5.689c-0.185 0.52 0.088 1.091 0.608 1.276s1.092-0.088 1.276-0.609zM2 16.312l2.955 2.777c1.929 1.931 4.49 2.908 7.048 2.909s5.119-0.975 7.072-2.927c1.104-1.104 1.901-2.407 2.361-3.745 0.18-0.522-0.098-1.091-0.621-1.271s-1.091 0.098-1.271 0.621c-0.361 1.050-0.993 2.091-1.883 2.981-1.563 1.562-3.609 2.342-5.657 2.342s-4.094-0.782-5.679-2.366l-2.8-2.633h3.475c0.552 0 1-0.448 1-1s-0.448-1-1-1h-5.997c-0.005 0-0.009 0-0.014 0-0.137 0.001-0.268 0.031-0.386 0.082-0.119 0.051-0.229 0.126-0.324 0.225-0.012 0.013-0.024 0.026-0.036 0.039-0.075 0.087-0.133 0.183-0.173 0.285s-0.064 0.211-0.069 0.326c-0.001 0.015-0.001 0.029-0.001 0.043v6c0 0.552 0.448 1 1 1s1-0.448 1-1z"></path>
</symbol>
<symbol id="icon-search" viewBox="0 0 24 24">
<path d="M16.041 15.856c-0.034 0.026-0.067 0.055-0.099 0.087s-0.060 0.064-0.087 0.099c-1.258 1.213-2.969 1.958-4.855 1.958-1.933 0-3.682-0.782-4.95-2.050s-2.050-3.017-2.050-4.95 0.782-3.682 2.050-4.95 3.017-2.050 4.95-2.050 3.682 0.782 4.95 2.050 2.050 3.017 2.050 4.95c0 1.886-0.745 3.597-1.959 4.856zM21.707 20.293l-3.675-3.675c1.231-1.54 1.968-3.493 1.968-5.618 0-2.485-1.008-4.736-2.636-6.364s-3.879-2.636-6.364-2.636-4.736 1.008-6.364 2.636-2.636 3.879-2.636 6.364 1.008 4.736 2.636 6.364 3.879 2.636 6.364 2.636c2.125 0 4.078-0.737 5.618-1.968l3.675 3.675c0.391 0.391 1.024 0.391 1.414 0s0.391-1.024 0-1.414z"></path>
</symbol>
<symbol id="icon-users1" viewBox="0 0 33 32">
<path stroke-linejoin="round" stroke-linecap="round" stroke-miterlimit="4" stroke-width="0.64" d="M23.679 7.409c-0.314 3.904-3.52 7.089-7.040 7.089s-6.732-3.184-7.040-7.089c-0.32-4.062 2.8-7.089 7.040-7.089s7.36 3.102 7.040 7.089z"></path>
<path stroke-linejoin="miter" stroke-linecap="butt" stroke-miterlimit="10" stroke-width="0.64" d="M16.64 19.225c-6.96 0-14.024 3.545-15.331 10.235-0.158 0.806 0.337 1.58 1.251 1.58h28.159c0.915 0 1.41-0.774 1.252-1.58-1.308-6.69-8.372-10.235-15.331-10.235z"></path>
</symbol>
<symbol id="icon-dot-single" viewBox="0 0 20 20">
<path d="M7.8 10c0 1.215 0.986 2.2 2.201 2.2s2.199-0.986 2.199-2.2c0-1.215-0.984-2.199-2.199-2.199s-2.201 0.984-2.201 2.199z"></path>
</symbol>
<symbol id="icon-dots-two-horizontal" viewBox="0 0 20 20">
<path d="M14.001 7.8c-1.215 0-2.201 0.985-2.201 2.2s0.986 2.2 2.201 2.2c1.215 0 2.199-0.985 2.199-2.2s-0.984-2.2-2.199-2.2zM6.001 7.8c-1.215 0-2.201 0.985-2.201 2.2s0.986 2.2 2.201 2.2c1.215 0 2.199-0.986 2.199-2.2s-0.984-2.2-2.199-2.2z"></path>
</symbol>
<symbol id="icon-user1" viewBox="0 0 32 32">
<path d="M18 22.082v-1.649c2.203-1.241 4-4.337 4-7.432 0-4.971 0-9-6-9s-6 4.029-6 9c0 3.096 1.797 6.191 4 7.432v1.649c-6.784 0.555-12 3.888-12 7.918h28c0-4.030-5.216-7.364-12-7.918z"></path>
</symbol>
</defs>
</svg>
